<svg xmlns="http://www.w3.org/2000/svg" viewBox="0 0 2001.78 1005"><defs><style>.cls-1{fill:#333;}.cls-2{fill:#444;stroke:#444;stroke-miterlimit:10;stroke-width:14px;}</style></defs><g id="Layer_3" data-name="Layer 3"><path class="cls-1" d="M1822.78,36.31A64.26,64.26,0,0,1,1834,0H0V1005H1304.26a64.63,64.63,0,0,1,55.18-98.33,65.37,65.37,0,0,1,7.45.44,64.59,64.59,0,0,1,58.89-103.6,64.62,64.62,0,0,1,51-104.37,63,63,0,0,1,6.47.33,64.6,64.6,0,0,1,60.9-102.18A64.63,64.63,0,0,1,1601.25,492a64.62,64.62,0,0,1,51.53-103.68,65.75,65.75,0,0,1,8,.51,64.61,64.61,0,0,1,50.68-104.75,65.69,65.69,0,0,1,7.86.49,64.59,64.59,0,0,1,58.07-104.18,64.58,64.58,0,0,1,60-103.25A64.35,64.35,0,0,1,1822.78,36.31Z"/></g><g id="Layer_4" data-name="Layer 4"><circle class="cls-2" cx="1712.11" cy="349" r="47.55"/><circle class="cls-2" cx="1770.11" cy="244.66" r="47.55"/><circle class="cls-2" cx="1828.78" cy="141.56" r="47.55"/><circle class="cls-2" cx="1887.44" cy="36.31" r="47.55"/><circle class="cls-2" cx="2004.78" cy="38.31" r="47.55"/><circle class="cls-2" cx="1946.11" cy="141.24" r="47.55"/><circle class="cls-2" cx="2004.78" cy="244.44" r="47.55"/><circle class="cls-2" cx="1887.44" cy="244.44" r="47.55"/><circle class="cls-2" cx="1828.78" cy="349" r="47.55"/><circle class="cls-2" cx="1946.11" cy="349" r="47.55"/><circle class="cls-2" cx="1652.78" cy="453.01" r="47.55"/><circle class="cls-2" cx="1594.11" cy="556.29" r="47.55"/><circle class="cls-2" cx="1711.44" cy="556.29" r="47.55"/><circle class="cls-2" cx="1828.78" cy="556.29" r="47.55"/><circle class="cls-2" cx="1946.11" cy="556.29" r="47.55"/><circle class="cls-2" cx="1535.44" cy="661.35" r="47.55"/><circle class="cls-2" cx="1652.78" cy="661.35" r="47.55"/><circle class="cls-2" cx="1770.11" cy="661.35" r="47.55"/><circle class="cls-2" cx="1887.44" cy="661.35" r="47.55"/><circle class="cls-2" cx="2004.78" cy="661.35" r="47.55"/><circle class="cls-2" cx="1476.78" cy="763.81" r="47.55"/><circle class="cls-2" cx="1594.11" cy="763.81" r="47.55"/><circle class="cls-2" cx="1711.11" cy="763.81" r="47.55"/><circle class="cls-2" cx="1828.78" cy="763.81" r="47.55"/><circle class="cls-2" cx="1946.11" cy="763.57" r="47.55"/><circle class="cls-2" cx="1418.11" cy="867.7" r="47.55"/><circle class="cls-2" cx="1535.44" cy="867.7" r="47.55"/><circle class="cls-2" cx="1652.78" cy="867.7" r="47.55"/><circle class="cls-2" cx="1770.11" cy="867.7" r="47.55"/><circle class="cls-2" cx="1887.44" cy="867.7" r="47.55"/><circle class="cls-2" cx="2004.78" cy="867.7" r="47.55"/><circle class="cls-2" cx="1359.44" cy="971.33" r="47.55"/><circle class="cls-2" cx="1476.78" cy="971.33" r="47.55"/><circle class="cls-2" cx="1594.11" cy="971.33" r="47.55"/><circle class="cls-2" cx="1711.11" cy="971.33" r="47.55"/><circle class="cls-2" cx="1828.78" cy="971.33" r="47.55"/><circle class="cls-2" cx="1946.11" cy="971.59" r="47.55"/><circle class="cls-2" cx="1770.11" cy="453.01" r="47.55"/><circle class="cls-2" cx="1887.44" cy="453.01" r="47.55"/><circle class="cls-2" cx="2004.78" cy="453.01" r="47.55"/></g></svg>